<?xml version="1.0" encoding="utf-8"?>
<!-- Generator: Adobe Illustrator 23.0.3, SVG Export Plug-In . SVG Version: 6.00 Build 0)  -->
<svg version="1.1" id="レイヤー_1" xmlns="http://www.w3.org/2000/svg" xmlns:xlink="http://www.w3.org/1999/xlink" x="0px"
	 y="0px" viewBox="0 0 90 43.79" style="enable-background:new 0 0 90 43.79;" xml:space="preserve">
<style type="text/css">
	.st0{fill:#FFFFFF;}
</style>
<g>
	<path class="st0" d="M67.39,23.96c-2.3-1.11-3.79-1.86-3.78-3.83c0-1.75,1.4-3.1,3.96-3.09c2.57,0.01,3.46,1.57,3.46,1.57
		c0-1.05,0-2.11,0-3.16c0,0-2.01-0.53-3.81-0.53c-5.54,0-7.14,3.33-7.14,5.63c0,6.68,9.29,6.01,9.29,10c0,2.07-2.49,3.36-4.57,3.36
		c-2.02,0-3.97-1.16-5.07-2.23c0.4,1.31,0.79,2.61,1.19,3.92c0,0,2.22,0.53,3.82,0.53c5.21,0,8.12-2.73,8.13-6.02
		C72.88,26.46,69.58,25.01,67.39,23.96 M30.33,15.33h-6.26c0,0,1.35,0.72,1.35,1.82c-0.01,4.11-0.01,8.23-0.01,12.34
		c0,2.59-1.64,4.44-3.69,4.43c-2.05-0.01-3.79-1.81-3.79-4.43c0-4.11,0-8.23,0.01-12.34c0-1.1,1.46-1.82,1.46-1.82h-6.33
		c0,0,1.28,0.72,1.28,1.82c0,4.11,0,8.23,0.01,12.34c0,5.02,4.49,6.63,7.37,6.63c2.92,0,7.28-1.58,7.28-6.63V17.15
		C29,16.05,30.33,15.33,30.33,15.33 M83.86,15.33c0,0,1.38,0.7,1.38,1.81V29.5c0,2.56-1.56,4.36-3.61,4.36
		c-2.05,0-3.8-1.73-3.8-4.36V17.13c0-1.13,1.41-1.81,1.41-1.81h-6.33c0,0,1.36,0.7,1.36,1.81V29.5c-0.01,5,4.49,6.56,7.36,6.56
		c2.89,0,7.05-1.54,7.06-6.56V17.13c0.01-1.1,1.32-1.81,1.32-1.81H83.86z M46.36,15.33c-0.41,1.35-0.83,2.69-1.24,4.02
		c0,0,1.42-1.87,2.42-1.87h3.52v16.34c0,1.12-1.36,1.92-1.36,1.92c2.09,0,4.17,0,6.25,0c0,0-1.37-0.9-1.37-1.92V17.48h2.91
		c1.36,0,1.71,1.56,1.71,1.56c0.4-1.24,0.79-2.47,1.19-3.71H46.36z M45.08,15.33H38.7c0,0,1.42,0.68,1.42,1.81v16.69
		c0,1.2-1.42,1.94-1.42,1.94h6.38c0,0-1.41-0.75-1.41-1.94V17.14C43.66,16.01,45.08,15.33,45.08,15.33 M32.8,17.11v19.16
		c-0.01,4.87-2.71,7.16-3.26,7.52c0.33,0.02,6.83-1.04,6.83-7.52V17.11c0-1.1,1.43-1.77,1.43-1.77h-6.36
		C31.44,15.34,32.8,16.07,32.8,17.11 M1.33,17.47v16.36c0,1.3-1.25,1.92-1.25,1.92h5.95c0,0-1.32-0.72-1.31-1.92v-8.21h4.56
		c1.52,0,1.72,1.02,1.72,1.02v-3.19H4.72v-6.01h5.79c1.36,0,1.99,1.38,1.99,1.38v-3.48H0C0,15.33,1.34,16.09,1.33,17.47 M34.33,6.65
		c0.79,0,1.5,0.33,2.02,0.84c0.54,0.53,1.38,1.62,1.79,2.06c1.03,1.1,2.5,1.8,4.13,1.81c3.12,0.01,5.66-2.52,5.66-5.64
		S45.4,0,42.28,0c-1.81,0-3.41,0.95-4.45,2.28v3.39c0.79-2.15,2.22-3.87,4.45-3.87c2.15,0,3.9,1.78,3.89,3.92
		c-0.01,2.15-1.74,3.89-3.89,3.88c-0.96-0.01-1.84-0.35-2.52-0.92c-0.84-0.66-1.77-2.05-2.64-2.78c-0.66-0.59-1.73-0.94-2.79-0.94
		c-2.53-0.01-4.59,1.99-4.6,4.57c-0.01,2.53,2.07,4.53,4.6,4.54c1.42,0.01,2.66-0.57,3.5-1.59V9.97c-0.45,0.78-1.35,1.77-2.17,2.12
		c-0.41,0.17-0.83,0.28-1.32,0.28c-1.57,0-2.88-1.23-2.88-2.84C31.46,8.03,32.65,6.64,34.33,6.65"/>
</g>
</svg>
